{"title":"The Venture Bros S05E03 SPHINX Rising (1920x1080) [Phr0stY].mkv","uid":8589247,"size":897101560,"categoryP":"video","categoryS":"hd___tv_shows","magnet":"?xt=urn:btih:657d82116fd27c2cb6fb651ceb5a805c23ac78bf&amp;dn=The+Venture+Bros+S05E03+SPHINX+Rising+%281920x1080%29+%5BPhr0stY%5D.mkv&amp;tr=udp%3A%2F%2Ftracker.openbittorrent.com%3A80&amp;tr=udp%3A%2F%2Fopen.demonii.com%3A1337&amp;tr=udp%3A%2F%2Ftracker.coppersurfer.tk%3A6969&amp;tr=udp%3A%2F%2Fexodus.desync.com%3A6969","seeders":1,"leechers":0,"uploader":"frostyon420","files":-1,"time":1371598255,"description":"Please Seed!!!!!!!!!\n\n\n\n\n\n\n\nComplete name                            : D:TV ShowsAdult SwimThe Venture BrosSeason 5The Venture Bros S05E03 SPHINX Rising (1920x1080) [Phr0stY].mkv\nFormat                                   : Matroska\nFormat version                           : Version 4 / Version 2\nFile size                                : 856 MiB\nDuration                                 : 22mn 37s\nOverall bit rate                         : 5286 Kbps\nEncoded date                             : UTC 2013-06-18 21:25:14\nWriting application                      : mkvmerge v6.2.0 ('Promised Land') built on Apr 28 2013 12:22:01\nWriting library                          : libebml v1.3.0 + libmatroska v1.4.0\n\nVideo\nID                                       : 1\nFormat                                   : AVC\nFormat/Info                              : Advanced Video Codec\nFormat profile                           : &lt;a class=&quot;__cf_email__&quot; href=&quot;/cdn-cgi/l/email-protection&quot; data-cfemail=&quot;fbb3929c93bbb7cfd5cb&quot;&gt;[email&amp;#160;protected]&lt;/a&gt;&lt;script cf-hash='f9e31' type=&quot;text/javascript&quot;&gt;\n/* &lt;![CDATA[ */!function(){try{var t=&quot;currentScript&quot;in document?document.currentScript:function(){for(var t=document.getElementsByTagName(&quot;script&quot;),e=t.length;e--;)if(t[e].getAttribute(&quot;cf-hash&quot;))return t[e]}();if(t&amp;&amp;t.previousSibling){var e,r,n,i,c=t.previousSibling,a=c.getAttribute(&quot;data-cfemail&quot;);if(a){for(e=&quot;&quot;,r=parseInt(a.substr(0,2),16),n=2;a.length-n;n+=2)i=parseInt(a.substr(n,2),16)^r,e+=String.fromCharCode(i);e=document.createTextNode(e),c.parentNode.replaceChild(e,c)}}}catch(u){}}();/* ]]&gt; */&lt;/script&gt;\nFormat settings, CABAC                   : Yes\nFormat settings, ReFrames                : 4 frames\nCodec ID                                 : V_MPEG4/ISO/AVC\nDuration                                 : 22mn 37s\nBit rate                                 : 4797 Kbps\nWidth                                    : 1920 pixels\nHeight                                   : 1080 pixels\nDisplay aspect ratio                     : 16:9\nFrame rate mode                          : Constant\nFrame rate                               : 23.976 fps\nColor space                              : YUV\nChroma subsampling                       : 4:2:0\nBit depth                                : 8 bits\nScan type                                : Progressive\nBits/(Pixel*Frame)                       : 0.096\nStream size                              : 776 MiB (91%)\nLanguage                                 : English\nDefault                                  : Yes\nForced                                   : No\nColor primaries                          : BT.709\nTransfer characteristics                 : BT.709\nMatrix coefficients                      : BT.709\n\nAudio\nID                                       : 2\nFormat                                   : AC-3\nFormat/Info                              : Audio Coding 3\nMode extension                           : CM (complete main)\nFormat settings, Endianness              : Big\nCodec ID                                 : A_AC3\nDuration                                 : 22mn 37s\nBit rate mode                            : Constant\nBit rate                                 : 384 Kbps\nChannel(s)                               : 6 channels\nChannel positions                        : Front: L C R, Side: L R, LFE\nSampling rate                            : 48.0 KHz\nBit depth                                : 16 bits\nCompression mode                         : Lossy\nStream size                              : 62.2 MiB (7%)\nLanguage                                 : English\nDefault                                  : Yes\nForced                                   : No\n\n","torrent":{"xt":"urn:btih:657d82116fd27c2cb6fb651ceb5a805c23ac78bf","amp;dn":"The+Venture+Bros+S05E03+SPHINX+Rising+%281920x1080%29+%5BPhr0stY%5D.mkv","amp;tr":["udp%3A%2F%2Ftracker.openbittorrent.com%3A80","udp%3A%2F%2Fopen.demonii.com%3A1337","udp%3A%2F%2Ftracker.coppersurfer.tk%3A6969","udp%3A%2F%2Fexodus.desync.com%3A6969"],"infoHash":"657d82116fd27c2cb6fb651ceb5a805c23ac78bf","infoHashBuffer":{"type":"Buffer","data":[101,125,130,17,111,210,124,44,182,251,101,28,235,90,128,92,35,172,120,191]},"announce":[],"urlList":[]}}